<?xml version="1.0" encoding="UTF-8" standalone="no"?>
<!-- Created with Inkscape (http://www.inkscape.org/) -->

<svg
   xmlns:dc="http://purl.org/dc/elements/1.1/"
   xmlns:cc="http://creativecommons.org/ns#"
   xmlns:rdf="http://www.w3.org/1999/02/22-rdf-syntax-ns#"
   xmlns:svg="http://www.w3.org/2000/svg"
   xmlns="http://www.w3.org/2000/svg"
   xmlns:sodipodi="http://sodipodi.sourceforge.net/DTD/sodipodi-0.dtd"
   xmlns:inkscape="http://www.inkscape.org/namespaces/inkscape"
   version="1.1"
   id="svg2"
   width="95.521683"
   height="91.76326"
   viewBox="0 0 95.521683 91.76326"
   sodipodi:docname="bitchute.svg"
   inkscape:version="0.92.2 2405546, 2018-03-11">
  <metadata
     id="metadata8">
    <rdf:RDF>
      <cc:Work
         rdf:about="">
        <dc:format>image/svg+xml</dc:format>
        <dc:type
           rdf:resource="http://purl.org/dc/dcmitype/StillImage" />
        <dc:title></dc:title>
      </cc:Work>
    </rdf:RDF>
  </metadata>
  <defs
     id="defs6" />
  <sodipodi:namedview
     pagecolor="#ffffff"
     bordercolor="#666666"
     borderopacity="1"
     objecttolerance="10"
     gridtolerance="10"
     guidetolerance="10"
     inkscape:pageopacity="0"
     inkscape:pageshadow="2"
     inkscape:window-width="1362"
     inkscape:window-height="743"
     id="namedview4"
     showgrid="false"
     inkscape:measure-start="0,0"
     inkscape:measure-end="0,0"
     inkscape:zoom="4.9166667"
     inkscape:cx="60.204902"
     inkscape:cy="52.464271"
     inkscape:window-x="0"
     inkscape:window-y="21"
     inkscape:window-maximized="0"
     inkscape:current-layer="svg2" />
  <g
     id="g3758">
    <path
       id="path3753"
       d="M 47.382812 0.01171875 C 46.468967 0.03036197 45.546377 0.070774475 44.615234 0.13085938 C 21.55096 1.6191541 4.5700611 15.287506 0.578125 35.578125 C -1.5316309 46.301812 2.2342533 58.940907 10.150391 67.703125 C 12.056119 69.812538 13.615234 72.293644 13.615234 73.216797 C 13.615234 76.206106 10.922886 80.212899 5.6582031 85.0625 C 2.8242401 87.673026 0.78360067 90.25666 1.1210938 90.802734 C 2.0331398 92.278456 12.025338 92.003872 18.470703 90.326172 C 21.575093 89.518113 27.040234 87.684978 30.615234 86.251953 C 36.13264 84.040321 38.551333 83.662446 46.615234 83.753906 C 62.44746 83.933474 74.434237 79.021648 84.550781 68.207031 C 99.993585 51.698628 99.046083 28.897283 82.259766 13.021484 C 72.839524 4.112211 61.090496 -0.26792956 47.382812 0.01171875 z "
       style="fill:#d72828" />
    <path
       d="m 73.021748,49.509833 c -1.179767,-1.223987 -1.253945,-1.820107 -0.369589,-2.970158 0.335482,-0.436276 0.884635,-1.150056 1.220339,-1.586179 0.414678,-0.538721 0.61037,-1.024425 0.61037,-1.514927 0,-0.641534 -0.203951,-0.920561 -1.830509,-2.504332 -1.769946,-1.723387 -1.830508,-1.812643 -1.830508,-2.697783 0,-1.288581 0.741417,-3.134345 1.609922,-4.007914 0.898183,-0.903419 2.443177,-1.287554 4.617361,-1.148023 1.941986,0.124629 3.258739,0.77315 3.829866,1.886269 0.633226,1.234147 0.601557,5.108548 -0.05895,7.211942 -0.987338,3.144198 -3.347866,7.081267 -4.763002,7.9441 -1.152017,0.702404 -1.916176,0.548078 -3.035302,-0.612995 z m -12.677485,0.587298 c -1.910595,-1.011167 -1.937917,-1.391951 -0.305102,-4.252191 1.91547,-3.355376 2.003098,-4.064595 0.502205,-4.064595 -1.582371,0 -2.68593,-2.043792 -2.481137,-4.595071 0.212116,-2.642522 1.761293,-4.036499 4.765842,-4.288389 4.295283,-0.360102 6.270922,2.025578 5.560203,6.714213 -0.430008,2.836782 -1.459171,5.328966 -3.309758,8.014795 -1.954698,2.836929 -3.004967,3.385392 -4.732253,2.471238 z m -29.162088,0.833707 c -1.530326,-0.84354 -2.430981,-1.564489 -2.885355,-2.309645 -0.52995,-0.869098 -0.521042,-3.212238 0.02028,-5.333737 0.779373,-3.05446 4.18644,-9.250563 5.593628,-10.172587 0.478023,-0.313213 0.563231,-0.302602 1.5852,0.197401 0.594013,0.290623 1.431945,0.832618 1.862073,1.204434 1.005155,0.868888 0.930088,1.201154 -0.776757,3.438115 -1.508954,1.977609 -2.005617,2.867068 -1.840786,3.296611 0.06551,0.170726 0.6369,0.503849 1.269747,0.740272 1.889084,0.705737 2.508856,1.547399 2.5266,3.431174 0.02021,2.145607 -0.862966,3.842105 -2.60058,4.995467 -2.02097,1.341443 -3.049116,1.452279 -4.754048,0.512495 z m -12.570754,0.223566 c -2.729277,-1.301911 -3.841393,-2.973485 -3.800948,-5.713042 0.03807,-2.578779 1.124767,-5.276288 3.696011,-9.174614 2.255996,-3.420373 2.593669,-3.614608 4.557754,-2.621699 1.435458,0.725672 1.994901,1.158387 1.994901,1.543007 0,0.142956 -0.695739,1.29572 -1.546087,2.561698 -2.305958,3.433053 -2.32265,3.569224 -0.519798,4.240541 1.577879,0.587544 2.202116,1.232585 2.477755,2.560332 0.18258,0.879481 0.163465,1.322284 -0.101854,2.359576 -0.519767,2.032079 -1.325176,2.980043 -3.476231,4.091517 -1.564482,0.808386 -1.876481,0.822903 -3.281503,0.152684 z"
       style="fill:#e3dbdb;stroke-width:0.20338982"
       id="path3723" />
  </g>
</svg>
