<?xml version="1.0" encoding="UTF-8" standalone="no"?>
<!-- Generator: Adobe Illustrator 19.2.0, SVG Export Plug-In . SVG Version: 6.00 Build 0)  -->

<svg
   xmlns:dc="http://purl.org/dc/elements/1.1/"
   xmlns:cc="http://creativecommons.org/ns#"
   xmlns:rdf="http://www.w3.org/1999/02/22-rdf-syntax-ns#"
   xmlns:svg="http://www.w3.org/2000/svg"
   xmlns="http://www.w3.org/2000/svg"
   xmlns:sodipodi="http://sodipodi.sourceforge.net/DTD/sodipodi-0.dtd"
   xmlns:inkscape="http://www.inkscape.org/namespaces/inkscape"
   version="1.1"
   id="Layer_1"
   x="0px"
   y="0px"
   viewBox="0 0 691.09998 576.5"
   xml:space="preserve"
   sodipodi:docname="books.svg"
   width="691.09998"
   height="576.5"
   inkscape:version="0.92.2 2405546, 2018-03-11"><metadata
   id="metadata63"><rdf:RDF><cc:Work
       rdf:about=""><dc:format>image/svg+xml</dc:format><dc:type
         rdf:resource="http://purl.org/dc/dcmitype/StillImage" /></cc:Work></rdf:RDF></metadata><defs
   id="defs61" /><sodipodi:namedview
   pagecolor="#ffffff"
   bordercolor="#666666"
   borderopacity="1"
   objecttolerance="10"
   gridtolerance="10"
   guidetolerance="10"
   inkscape:pageopacity="0"
   inkscape:pageshadow="2"
   inkscape:window-width="1858"
   inkscape:window-height="997"
   id="namedview59"
   showgrid="false"
   inkscape:zoom="0.24583333"
   inkscape:cx="353.7356"
   inkscape:cy="288.3"
   inkscape:window-x="29"
   inkscape:window-y="50"
   inkscape:window-maximized="0"
   inkscape:current-layer="Layer_1" />
<style
   type="text/css"
   id="style2">
	.st0{fill:#C1272D;}
	.st1{fill:#AD1F2A;}
	.st2{fill:#FBB03B;}
	.st3{fill:#8C6239;}
	.st4{fill:#7F532F;}
	.st5{fill:#603813;}
	.st6{fill:#0071BC;}
	.st7{fill:#04679E;}
	.st8{fill:#2E3192;}
	.st9{fill:#2DAFD3;}
	.st10{fill:#229EBA;}
	.st11{fill:#0F6193;}
</style>
<g
   id="g56"
   transform="translate(-134.39999,-191.8)">
	<rect
   x="310.10001"
   y="226.10001"
   class="st0"
   width="133.60001"
   height="484.79999"
   id="rect4"
   style="fill:#c1272d" />
	<rect
   x="413.20001"
   y="226.10001"
   class="st1"
   width="30.5"
   height="484.79999"
   id="rect6"
   style="fill:#ad1f2a" />
	<rect
   x="310.10001"
   y="268.10001"
   class="st2"
   width="133.60001"
   height="76.300003"
   id="rect8"
   style="fill:#fbb03b" />
	<rect
   x="172.60001"
   y="191.8"
   class="st3"
   width="137.5"
   height="519.20001"
   id="rect10"
   style="fill:#8c6239" />
	<rect
   x="279.5"
   y="191.8"
   class="st4"
   width="30.5"
   height="519.20001"
   id="rect12"
   style="fill:#7f532f" />
	<rect
   x="172.60001"
   y="226.10001"
   class="st5"
   width="137.5"
   height="61.099998"
   id="rect14"
   style="fill:#603813" />
	<rect
   x="172.60001"
   y="611.70001"
   class="st5"
   width="137.5"
   height="64.900002"
   id="rect16"
   style="fill:#603813" />
	<rect
   x="172.60001"
   y="611.70001"
   class="st5"
   width="137.5"
   height="64.900002"
   id="rect18"
   style="fill:#603813" />
	<rect
   x="172.60001"
   y="573.5"
   class="st5"
   width="137.5"
   height="19.1"
   id="rect20"
   style="fill:#603813" />
	<rect
   x="310.10001"
   y="367.39999"
   class="st2"
   width="133.60001"
   height="11.5"
   id="rect22"
   style="fill:#fbb03b" />
	<rect
   x="310.10001"
   y="638.40002"
   class="st2"
   width="133.60001"
   height="11.5"
   id="rect24"
   style="fill:#fbb03b" />
	<rect
   x="310.10001"
   y="665.09998"
   class="st2"
   width="133.60001"
   height="19.1"
   id="rect26"
   style="fill:#fbb03b" />
	<rect
   x="443.70001"
   y="207.10001"
   class="st6"
   width="122.2"
   height="503.89999"
   id="rect28"
   style="fill:#0071bc" />
	<rect
   x="535.40002"
   y="207.10001"
   class="st7"
   width="30.5"
   height="503.89999"
   id="rect30"
   style="fill:#04679e" />
	<path
   class="st8"
   d="m 539.2,590.7 c 0,20 -16.2,36.3 -36.3,36.3 v 0 c -20,0 -36.3,-16.2 -36.3,-36.3 V 292.9 c 0,-20 16.2,-36.3 36.3,-36.3 v 0 c 20,0 36.3,16.2 36.3,36.3 z"
   id="path32"
   inkscape:connector-curvature="0"
   style="fill:#2e3192" />
	<path
   class="st2"
   d="m 416,596.4 h -70.6 c -2.7,0 -4.8,-2.2 -4.8,-4.8 V 463.8 c 0,-2.7 2.2,-4.8 4.8,-4.8 H 416 c 2.7,0 4.8,2.2 4.8,4.8 v 127.8 c 0,2.7 -2.1,4.8 -4.8,4.8 z"
   id="path34"
   inkscape:connector-curvature="0"
   style="fill:#fbb03b" />
	
		<rect
   x="609.09998"
   y="217.60001"
   transform="matrix(0.982,-0.1888,0.1888,0.982,-74.6591,135.9342)"
   class="st9"
   width="134.2"
   height="484.5"
   id="rect36"
   style="fill:#2dafd3" />
	
		<rect
   x="709.70001"
   y="208.10001"
   transform="matrix(0.982,-0.1888,0.1888,0.982,-71.9718,145.1693)"
   class="st10"
   width="32.599998"
   height="484.5"
   id="rect38"
   style="fill:#229eba" />
	
		<rect
   x="573.20001"
   y="266.39999"
   transform="matrix(0.982,-0.1888,0.1888,0.982,-39.8746,125.7269)"
   class="st11"
   width="133.60001"
   height="11.5"
   id="rect40"
   style="fill:#0f6193" />
	
		<rect
   x="578.29999"
   y="293.10001"
   transform="matrix(0.982,-0.1888,0.1888,0.982,-44.8247,127.1713)"
   class="st11"
   width="133.60001"
   height="11.5"
   id="rect42"
   style="fill:#0f6193" />
	
		<rect
   x="641.70001"
   y="622.29999"
   transform="matrix(0.982,-0.1888,0.1888,0.982,-105.8363,145.0585)"
   class="st11"
   width="133.60001"
   height="11.5"
   id="rect44"
   style="fill:#0f6193" />
	
		<rect
   x="646.79999"
   y="649"
   transform="matrix(0.982,-0.1888,0.1888,0.982,-110.7864,146.5029)"
   class="st11"
   width="133.60001"
   height="11.5"
   id="rect46"
   style="fill:#0f6193" />
	<circle
   class="st5"
   cx="241.7"
   cy="367.29999"
   id="ellipse48"
   r="39"
   style="fill:#603813" />
	<path
   class="st8"
   d="m 531.5,669 h -57.3 c -3.2,0 -5.7,-2.6 -5.7,-5.7 0,-3.1 2.6,-5.7 5.7,-5.7 h 57.3 c 3.2,0 5.7,2.6 5.7,5.7 0,3.1 -2.5,5.7 -5.7,5.7 z"
   id="path50"
   inkscape:connector-curvature="0"
   style="fill:#2e3192" />
	<path
   class="st11"
   d="m 728.4,582.6 -51.1,9.8 c -3.5,0.7 -6.8,-1.6 -7.5,-5.1 L 626.7,363 c -0.7,-3.5 1.6,-6.8 5.1,-7.5 l 51.1,-9.8 c 3.5,-0.7 6.8,1.6 7.5,5.1 l 43.2,224.4 c 0.5,3.4 -1.8,6.8 -5.2,7.4 z"
   id="path52"
   inkscape:connector-curvature="0"
   style="fill:#0f6193" />
	<rect
   x="134.39999"
   y="711"
   class="st5"
   width="691.09998"
   height="57.299999"
   id="rect54"
   style="fill:#603813" />
</g>
</svg>