<?xml version="1.0" encoding="UTF-8" standalone="no"?>
<svg
   xmlns:dc="http://purl.org/dc/elements/1.1/"
   xmlns:cc="http://creativecommons.org/ns#"
   xmlns:rdf="http://www.w3.org/1999/02/22-rdf-syntax-ns#"
   xmlns:svg="http://www.w3.org/2000/svg"
   xmlns="http://www.w3.org/2000/svg"
   viewBox="0 0 451.81555 398.46927"
   height="398.46927"
   width="451.81555"
   id="svg64"
   version="1.1">
  <metadata
     id="metadata70">
    <rdf:RDF>
      <cc:Work
         rdf:about="">
        <dc:format>image/svg+xml</dc:format>
        <dc:type
           rdf:resource="http://purl.org/dc/dcmitype/StillImage" />
        <dc:title></dc:title>
      </cc:Work>
    </rdf:RDF>
  </metadata>
  <defs
     id="defs68">
    <filter
       id="filter2771"
       style="color-interpolation-filters:sRGB">
      <feFlood
         id="feFlood2761"
         result="flood"
         flood-color="rgb(0,0,0)"
         flood-opacity="0.490196" />
      <feComposite
         id="feComposite2763"
         result="composite1"
         operator="in"
         in2="SourceGraphic"
         in="flood" />
      <feGaussianBlur
         id="feGaussianBlur2765"
         result="blur"
         stdDeviation="2.77556e-17"
         in="composite1" />
      <feOffset
         id="feOffset2767"
         result="offset"
         dy="2.4541"
         dx="2.2" />
      <feComposite
         id="feComposite2769"
         result="composite2"
         operator="over"
         in2="offset"
         in="SourceGraphic" />
    </filter>
    <filter
       id="filter2895"
       style="color-interpolation-filters:sRGB">
      <feFlood
         id="feFlood2885"
         result="flood"
         flood-color="rgb(0,0,0)"
         flood-opacity="0.490196" />
      <feComposite
         id="feComposite2887"
         result="composite1"
         operator="in"
         in2="SourceGraphic"
         in="flood" />
      <feGaussianBlur
         id="feGaussianBlur2889"
         result="blur"
         stdDeviation="2.77556e-17"
         in="composite1" />
      <feOffset
         id="feOffset2891"
         result="offset"
         dy="2.5"
         dx="2.2" />
      <feComposite
         id="feComposite2893"
         result="composite2"
         operator="over"
         in2="offset"
         in="SourceGraphic" />
    </filter>
    <filter
       id="filter2915"
       style="color-interpolation-filters:sRGB">
      <feFlood
         id="feFlood2905"
         result="flood"
         flood-color="rgb(0,0,0)"
         flood-opacity="0.490196" />
      <feComposite
         id="feComposite2907"
         result="composite1"
         operator="in"
         in2="SourceGraphic"
         in="flood" />
      <feGaussianBlur
         id="feGaussianBlur2909"
         result="blur"
         stdDeviation="2.77556e-17"
         in="composite1" />
      <feOffset
         id="feOffset2911"
         result="offset"
         dy="2.5"
         dx="2.2" />
      <feComposite
         id="feComposite2913"
         result="composite2"
         operator="over"
         in2="offset"
         in="SourceGraphic" />
    </filter>
  </defs>
  <a
     transform="translate(-0.70742161,-24.652963)"
     id="a3841">
    <g
       id="g4352"
       style="display:inline"
       transform="matrix(3.7795276,0,0,3.7795276,-62.871853,-180.31093)">
      <path
         style="fill:#ececec;fill-opacity:1;fill-rule:evenodd;stroke-width:0.996957"
         d="m 59.408203,77.949219 c -0.01582,-0.04895 -0.139318,0.04327 -0.382812,0.24414 -0.292808,0.24155 -0.533203,0.661808 -0.533203,0.933594 -10e-7,0.290515 0.02266,0.415643 0.115234,0.333985 0.09257,-0.08166 0.256412,-0.369862 0.535156,-0.90625 0.190146,-0.365897 0.281447,-0.556519 0.265625,-0.605469 z"
         id="path3751"
         transform="matrix(0.26458333,0,0,0.26458333,16.579754,54.541633)" />
      <path
         style="fill:#ffffff;fill-opacity:1;fill-rule:evenodd;stroke-width:0.26377821"
         d="m 123.77549,158.07229 c -0.19478,-0.0227 -0.35059,-0.0522 -0.47387,-0.0971 -0.12785,-0.0466 -0.22545,-0.10855 -0.31006,-0.19327 -0.16921,-0.16944 -0.28589,-0.42952 -0.48782,-0.83819 -0.12173,-0.24637 -0.1942,-0.4439 -0.23616,-0.63304 -0.042,-0.18914 -0.0538,-0.36981 -0.0538,-0.58343 0,-0.22589 -0.005,-0.35829 -0.03,-0.44028 -0.0245,-0.082 -0.068,-0.11376 -0.14263,-0.13746 -0.095,-0.0302 -0.7903,-0.0449 -1.54512,-0.0331 -0.71464,0.0112 -1.13906,0.006 -1.49759,-0.0501 -0.35853,-0.0564 -0.65143,-0.16446 -1.10277,-0.35915 -0.20955,-0.0904 -0.51398,-0.19017 -0.67696,-0.22169 -0.17982,-0.0348 -0.50154,-0.1713 -0.87127,-0.36174 -0.36972,-0.19044 -0.78736,-0.43459 -1.16065,-0.68471 -0.30268,-0.2028 -0.97185,-0.77704 -1.48673,-1.27589 -1.41344,-1.36946 -2.56451,-2.38849 -2.69751,-2.38849 -0.10546,0 -0.35165,-0.16854 -0.79323,-0.55293 -0.44159,-0.3844 -1.07826,-0.98506 -1.96526,-1.84898 -1.06537,-1.03766 -1.84235,-1.8663 -2.01125,-2.14613 -0.15133,-0.25075 -0.27491,-0.48015 -0.27491,-0.50953 0,-0.0294 -0.21904,-0.33934 -0.4868,-0.68884 l -0.48679,-0.63562 -0.0496,-0.80926 c -0.0251,-0.41029 -0.0534,-0.66218 -0.12867,-0.8847 -0.0752,-0.22252 -0.19748,-0.41608 -0.41031,-0.70952 -0.11144,-0.15364 -0.22795,-0.47246 -0.26304,-0.71933 -0.0462,-0.32554 -0.0634,-0.89305 -0.0553,-1.41335 0.008,-0.5203 0.0411,-0.99334 0.0946,-1.1312 0.0508,-0.13109 0.0925,-0.3621 0.0925,-0.51315 0,-0.15105 0.0512,-0.34446 0.11369,-0.42994 0.0542,-0.0742 0.0841,-0.11079 0.1173,-0.10491 0.0332,0.006 0.0699,0.0542 0.13695,0.14986 0.0867,0.12379 0.13072,0.29078 0.13281,0.49507 0.002,0.20428 -0.0377,0.44588 -0.12041,0.7183 -0.0647,0.21329 -0.10405,0.46504 -0.11989,0.73122 -0.0158,0.26618 -0.008,0.54666 0.0196,0.81649 0.0279,0.26983 0.0765,0.5292 0.14314,0.75344 0.0666,0.22424 0.15097,0.41319 0.25115,0.5426 0.19008,0.24555 0.29701,0.40529 0.35605,0.59273 0.059,0.18744 0.0703,0.40269 0.0703,0.76068 0,0.37493 0.0262,0.63744 0.10335,0.86041 0.0772,0.22297 0.20517,0.4065 0.4098,0.6227 0.13222,0.1397 0.4245,0.57777 0.64905,0.97359 0.17802,0.3138 0.33171,0.54379 0.61805,0.86609 0.28634,0.32231 0.70529,0.73708 1.41283,1.42007 0.92643,0.89427 1.48979,1.42961 1.86604,1.76113 0.37625,0.33153 0.56525,0.45909 0.74207,0.53692 0.15622,0.0688 0.47585,0.31374 0.92966,0.71004 0.45381,0.39629 1.04189,0.94383 1.73581,1.61747 0.71845,0.69744 1.34458,1.22341 1.93839,1.61695 0.2969,0.19678 0.58555,0.36035 0.87385,0.4961 0.28829,0.13574 0.57602,0.24346 0.87074,0.32814 0.2794,0.0803 0.67929,0.22781 0.88884,0.32815 0.17701,0.0848 0.31063,0.13123 0.6506,0.15916 0.33998,0.0279 0.88671,0.0374 1.88981,0.0496 1.1955,0.0145 2.19461,0.0618 2.23914,0.10594 0.0608,0.0601 0.20467,0.0829 0.35657,0.0729 0.1519,-0.01 0.31174,-0.0527 0.40463,-0.12299 0.0904,-0.0684 0.2214,-0.12402 0.29093,-0.12402 0.11276,0 0.50642,-0.16558 0.92501,-0.37104 0.41859,-0.20546 0.86227,-0.45087 1.07539,-0.61081 0.1397,-0.10486 0.46689,-0.27021 0.72709,-0.36742 0.21582,-0.0806 0.34031,-0.13652 0.44389,-0.23152 0.1036,-0.095 0.18601,-0.229 0.31782,-0.46715 0.1861,-0.33626 0.66983,-0.91058 1.3596,-1.61385 l 1.07126,-1.09193 0.0599,-0.84129 c 0.0331,-0.46272 0.0901,-0.8598 0.12712,-0.88263 0.0369,-0.0228 0.0946,-0.27835 0.12816,-0.56741 0.0324,-0.27973 0.0782,-0.47384 0.19017,-0.68058 0.11196,-0.20674 0.29027,-0.42576 0.58756,-0.75499 0.19609,-0.21717 0.38184,-0.50302 0.41238,-0.6351 0.0687,-0.29711 0.4886,-1.07123 0.79633,-1.46762 0.12653,-0.16297 0.25309,-0.44306 0.28112,-0.62218 0.03,-0.19187 0.19441,-0.51579 0.39998,-0.78807 0.19854,-0.26296 0.34594,-0.49739 0.4439,-0.70693 0.098,-0.20954 0.14624,-0.39381 0.14624,-0.55552 0,-0.12254 0.13995,-0.44912 0.31058,-0.72554 0.17061,-0.27642 0.33953,-0.6822 0.37569,-0.90175 0.10688,-1.23914 0.26659,-1.77616 0.31677,-2.20142 0.0251,-0.21263 0.0231,-0.39715 -0.0269,-0.62787 -0.05,-0.23071 -0.14797,-0.50731 -0.31367,-0.90382 -0.10899,-0.18456 -0.19401,-0.42431 -0.2589,-0.69246 -0.0649,-0.26815 -0.10948,-0.56486 -0.13746,-0.86403 -0.056,-0.59834 -0.0453,-1.2063 0.003,-1.61334 0.041,-0.34425 -0.0542,-0.76726 -0.15451,-1.10742 -0.10033,-0.34017 -0.20577,-0.59708 -0.18604,-0.60927 -0.15558,-0.86297 -0.18138,-1.55351 -0.21394,-2.20038 -0.0163,-0.32344 -0.0343,-0.63589 -0.0713,-0.95395 -0.037,-0.31806 -0.093,-0.64138 -0.185,-0.9865 -0.0908,-0.33794 -0.17142,-0.58566 -0.27699,-0.82062 -0.10557,-0.23497 -0.23612,-0.45725 -0.42581,-0.74363 -0.24495,-0.26976 -0.36843,-0.52026 -0.43615,-0.78961 -0.0677,-0.26936 -0.0795,-0.55769 -0.10181,-0.90383 -0.0346,-0.53671 -0.1274,-1.18513 -0.20618,-1.44125 -0.0788,-0.25612 -0.14051,-0.50379 -0.13746,-0.55035 0.0603,-0.92238 0.10265,-1.87604 0.0997,-2.2438 -0.002,-0.25612 0.11259,-0.92276 0.25477,-1.48156 0.14217,-0.5588 0.29161,-1.20687 0.33176,-1.4397 0.0489,-0.28325 0.0745,-0.60344 0.0786,-0.94568 0.004,-0.34225 -0.0136,-0.70652 -0.0512,-1.07694 -0.0752,-0.74085 -0.23064,-1.50696 -0.45372,-2.17558 -0.23349,-0.69973 -0.36301,-1.13874 -0.44235,-1.69033 -0.0794,-0.5516 -0.10842,-1.21586 -0.14108,-2.36627 -0.0299,-1.05315 -0.0472,-1.60005 -0.094,-2.0283 -0.0469,-0.42824 -0.12363,-0.73799 -0.27234,-1.3162 -0.16764,-0.65194 -0.47935,-1.92794 -0.69298,-2.83599 -0.27214,-1.15686 -0.58817,-2.351991 -0.92914,-3.53157 -0.34097,-1.179581 -0.70691,-2.343795 -1.08004,-3.438551 -0.37313,-1.094756 -0.75325,-2.120173 -1.12189,-3.022555 -0.36864,-0.90238 -0.72568,-1.681644 -1.05317,-2.284098 -0.3164,-0.582083 -1.19682,-2.315779 -1.95595,-3.852476 -0.75912,-1.5367 -1.48396,-2.94636 -1.61127,-3.132627 -0.12731,-0.186267 -0.33124,-0.515347 -0.45269,-0.731221 -0.12143,-0.215871 -0.40911,-0.615757 -0.63975,-0.888836 -0.51152,-0.605632 -0.81411,-0.971944 -1.02784,-1.26142 -0.21373,-0.289477 -0.33896,-0.502204 -0.49558,-0.801502 -0.18276,-0.34925 -0.53947,-0.942778 -0.79272,-1.319299 -0.25327,-0.37652 -0.56888,-0.960713 -0.70125,-1.298112 -0.15232,-0.388242 -0.32878,-0.681152 -0.48059,-0.797368 -0.66689,-0.510526 -2.2937,-2.005512 -2.52594,-2.321305 -0.14555,-0.197909 -0.29843,-0.359668 -0.34003,-0.359668 -0.0416,0 -0.14893,-0.143185 -0.23823,-0.31781 -0.0893,-0.174625 -0.40439,-0.54865 -0.70022,-0.831473 -0.24522,-0.234452 -0.44611,-0.405475 -0.76791,-0.625802 -0.3218,-0.220328 -0.76429,-0.489941 -1.49242,-0.921908 -0.24549,-0.145641 -0.59907,-0.303222 -0.98391,-0.4439 -0.38485,-0.140679 -0.80097,-0.26481 -1.17099,-0.344165 -0.22956,-0.04923 -1.04441,-0.311318 -1.81074,-0.582394 -0.8166,-0.28886 -1.40241,-0.537247 -1.83297,-0.789616 -0.21528,-0.126184 -0.39196,-0.253434 -0.53898,-0.387056 -0.14703,-0.133622 -0.26465,-0.273712 -0.36225,-0.425814 -0.16621,-0.258932 -0.572,-0.699714 -1.04594,-1.156518 -0.47393,-0.456804 -1.01603,-0.929644 -1.45365,-1.252637 -0.37253,-0.274955 -1.02064,-0.826925 -1.44074,-1.226798 -1.03445,-0.984676 -1.901693,-1.734514 -2.157493,-1.866036 -0.11642,-0.05986 -0.32591,-0.215158 -0.46561,-0.344682 -0.1397,-0.129524 -0.6468,-0.468139 -1.12654,-0.752926 -0.72033,-0.427603 -1.36099,-0.773587 -1.98128,-1.051615 -0.62029,-0.278029 -1.21999,-0.488095 -1.85725,-0.645439 -0.63726,-0.157344 -1.31236,-0.261563 -2.08359,-0.327112 -0.77123,-0.06555 -1.63861,-0.09244 -2.66082,-0.09508 l -1.63298,-0.0708 -2.38848,-0.516764 c -1.03048,-0.255069 -1.65479,-0.41696 -2.14509,-0.572058 -0.49031,-0.155099 -0.84686,-0.303336 -1.34152,-0.530718 -0.7036,-0.330181 -1.2408,-0.555433 -1.67793,-0.713651 -0.43714,-0.158218 -0.7739,-0.249509 -1.07746,-0.312126 -0.60713,-0.125232 -1.0801,-0.135415 -1.95027,-0.336413 -0.0662,-0.100859 -0.29566,-0.148157 -0.63613,-0.175183 -0.34048,-0.02703 -0.79204,-0.03407 -1.3038,-0.05529 -0.66156,-0.02743 -1.22708,-0.01344 -1.77095,0.05013 -0.54387,0.06357 -1.06631,0.176741 -1.64228,0.348816 -0.67572,0.201879 -1.22557,0.325115 -1.86448,0.392224 -0.63892,0.06711 -1.3665,0.07844 -2.39727,0.05581 l -1.82056,-0.04031 -1.56632,0.341065 c -0.86148,0.187614 -2.15711,0.457766 -2.87889,0.599963 -1.01262,0.199493 -2.38694,0.527837 -3.78943,0.897103 -1.4025,0.369266 -2.83297,0.779395 -3.95738,1.142566 -1.0125,0.327025 -1.75057,0.581555 -2.44327,0.854211 -0.692696,0.272656 -1.339885,0.563597 -2.170923,0.962215 -1.700366,0.815602 -3.886186,1.824878 -5.580538,2.577621 -0.531334,0.236053 -1.026675,0.482685 -1.100708,0.54777 -0.07403,0.06509 -0.365051,0.233649 -0.646989,0.374654 -0.281937,0.141001 -0.680571,0.396517 -0.885734,0.567924 -0.20516,0.171411 -0.546176,0.428813 -0.757576,0.572058 -0.211399,0.143246 -0.51588,0.373781 -0.676445,0.512113 -0.160565,0.138329 -0.57954,0.38706 -0.931209,0.552938 -0.430597,0.203108 -0.97211,0.519632 -1.46141,0.841809 -0.489299,0.322177 -0.926183,0.650139 -1.147733,0.876433 -0.198707,0.202962 -0.560926,0.679107 -0.804602,1.057816 -0.84931,1.319945 -1.355872,2.023627 -1.790072,2.486153 -0.287731,0.306502 -0.462685,0.506391 -0.639237,0.770496 -0.176552,0.264105 -0.354895,0.592562 -0.649056,1.156519 -0.273457,0.524265 -0.592584,1.135428 -0.709001,1.358056 -0.116416,0.222626 -0.292008,0.517385 -0.390674,0.655257 -0.09867,0.137874 -0.207982,0.346087 -0.242362,0.462504 -0.03438,0.116416 -0.168376,0.383179 -0.298173,0.592729 -0.129794,0.20955 -0.30043,0.607806 -0.379305,0.885217 -0.07888,0.277413 -0.23058,0.677298 -0.336931,0.888835 -0.106349,0.211539 -0.258455,0.613569 -0.337963,0.892969 -0.07292,0.256267 -0.236098,0.633968 -0.401526,0.960665 -0.165428,0.326694 -0.333263,0.602059 -0.415995,0.65319 -0.04921,0.03041 -0.159112,0.170286 -0.24443,0.310576 -0.132446,0.217792 -0.459208,0.580824 -0.910539,1.021125 -0.45133,0.440301 -1.027409,0.957749 -1.657263,1.48363 -0.52317,0.427844 -0.90697,0.772102 -1.204061,1.06712 -0.29709,0.295016 -0.507257,0.540716 -0.683679,0.771528 -0.352843,0.461623 -0.56966,0.863489 -1.072286,1.480013 -0.123141,0.04293 -0.306046,0.291208 -0.510046,0.632002 -0.204,0.340796 -0.429361,0.774438 -0.637171,1.187524 -0.200759,0.399074 -0.354612,0.84573 -0.468188,1.371494 -0.113576,0.525764 -0.186913,1.130678 -0.22686,1.845882 -0.03769,0.674804 -0.09662,1.222457 -0.179834,1.655712 -0.08321,0.433258 -0.190643,0.75211 -0.324011,0.967901 -0.08991,0.145476 -0.337186,0.697151 -0.549837,1.22628 -0.156908,0.39042 -0.257977,0.67133 -0.328145,0.941028 -0.07017,0.2697 -0.109389,0.528492 -0.144178,0.874882 -0.04715,0.469455 -0.143857,1.291249 -0.214974,1.826763 -0.149152,1.123133 -0.244997,1.972603 -0.309025,2.852023 -0.06403,0.87942 -0.09673,1.78885 -0.119889,3.03237 -0.03059,1.64264 -0.01626,3.02713 0.04186,4.14135 0.05812,1.11422 0.160375,1.95838 0.305924,2.51974 0.112627,0.43439 0.265848,1.20277 0.340548,1.70739 0.0747,0.50462 0.227331,1.38076 0.339514,1.94717 0.112184,0.56642 0.268773,1.46799 0.347783,2.0035 0.07901,0.53551 0.209513,1.14488 0.289904,1.35443 0.08039,0.20955 0.171784,0.53359 0.203089,0.71986 0.03131,0.18626 0.184583,0.60524 0.340548,0.93121 0.155963,0.32597 0.419991,0.87858 0.587044,1.22783 0.16705,0.34925 0.342778,0.88278 0.390157,1.18546 0.0549,0.3507 0.203961,0.86682 0.380855,1.36167 0.176894,0.49485 0.381327,0.96845 0.546737,1.23403 0.140441,0.22549 0.77594,0.92423 1.4118,1.55288 0.635859,0.62865 1.280322,1.33464 1.43247,1.5689 0.173469,0.26709 0.511439,0.65671 0.89607,1.04903 0.38463,0.39232 0.816037,0.78735 1.176672,1.06505 0.302376,0.23283 0.904849,0.71863 1.338937,1.07952 0.43409,0.36089 0.822627,0.65629 0.863513,0.65629 0.138967,-0.0159 0.245847,-0.003 0.331245,0.0284 0.0854,0.0315 0.149261,0.0818 0.202055,0.14108 0.10559,0.11856 0.167235,0.27261 0.268201,0.38447 0.154054,0.1175 0.376138,0.35904 0.49351,0.5364 0.117369,0.17736 0.342675,0.38388 0.500745,0.45889 0.158067,0.075 0.430933,0.25038 0.606164,0.38964 0.175231,0.13925 0.452645,0.29716 0.617017,0.3514 0.34653,0.11436 0.776721,0.30653 1.153418,0.50384 0.376697,0.19732 0.700231,0.40022 0.833024,0.53692 0.696124,0.71663 2.100321,1.96775 2.487187,2.2164 0.443422,0.28502 0.882125,0.531 1.250052,0.70591 0.367928,0.1749 0.664984,0.2789 0.82579,0.28111 0.175615,0.002 0.580477,-0.0829 0.899686,-0.18965 0.494951,-0.0378 0.782996,-0.1502 1.026811,-0.25218 0.243816,-0.10197 0.443428,-0.1936 0.761711,-0.18965 0.249573,0.0411 0.651312,0.10355 1.030428,0.1788 0.379116,0.0753 0.735579,0.16315 0.893485,0.25631 0.14247,0.0841 0.448363,0.17565 0.680061,0.20309 0.196974,0.0233 0.392475,0.0755 0.603065,0.1695 0.210592,0.094 0.436477,0.2294 0.695565,0.41961 0.518176,0.38044 1.168355,0.97901 2.089796,1.89808 0.75026,0.74833 1.297466,1.2562 1.72289,1.58698 0.212714,0.1654 0.395142,0.28689 0.557072,0.37156 0.16193,0.0847 0.303165,0.13273 0.434599,0.15244 0.138867,0.0208 0.243057,0.0512 0.332276,0.10232 0.0892,0.0512 0.16366,0.12335 0.2434,0.2279 0.50861,0.40397 1.07329,0.78311 1.66863,1.09502 0.29767,0.15595 0.60272,0.2949 0.91261,0.41186 0.30988,0.11696 0.62471,0.21174 0.94051,0.27905 0.56416,0.11415 0.95292,0.13459 1.80092,0.0941 0.58555,-0.028 1.14771,-0.0176 1.63246,0.0264 0.48475,0.044 0.89208,0.12165 1.16944,0.22789 0.19233,0.0737 0.78791,0.28434 1.32343,0.46871 l 0.9741,0.33538 2.03192,0.0832 c 1.95845,0.0802 3.6897,0.0997 5.30407,0.0548 1.61436,-0.0449 3.11169,-0.15411 4.60178,-0.33021 1.00673,-0.11899 1.71938,-0.21654 2.26188,-0.31522 0.5425,-0.0987 0.91468,-0.19817 1.23972,-0.32143 0.30923,-0.11727 1.03849,-0.32738 1.62057,-0.46664 0.58209,-0.13924 1.43965,-0.36072 1.90531,-0.49248 0.46567,-0.13176 1.30362,-0.34539 1.86242,-0.47439 0.5588,-0.129 1.16149,-0.30665 1.33894,-0.3948 0.17745,-0.0882 0.56232,-0.23442 0.85576,-0.32505 0.29343,-0.0906 0.62467,-0.23594 0.73587,-0.32298 0.1112,-0.087 0.43665,-0.27619 0.72347,-0.42065 0.28682,-0.14444 0.65743,-0.35465 0.82321,-0.46715 0.16578,-0.11251 0.56012,-0.26342 0.87643,-0.33486 0.3163,-0.0714 0.99041,-0.32845 1.4981,-0.57154 0.46012,-0.22031 0.79454,-0.41301 1.10484,-0.65784 0.3103,-0.24484 0.59666,-0.54187 0.95963,-0.971 0.11881,-0.14047 0.29098,-0.2673 0.79582,-0.5209 0.50484,-0.25361 1.34218,-0.63401 2.79208,-1.28158 1.82398,-0.81463 3.3571,-1.46488 3.40702,-1.44487 0.0499,0.02 0.54252,0.8226 1.09451,1.78335 0.38076,0.66272 0.62596,1.10601 0.7674,1.39423 0.14143,0.28822 0.17909,0.42146 0.14417,0.46354 -0.0676,0.0814 -0.0473,0.2379 0.076,0.58859 0.0778,0.22127 0.11957,0.39721 0.14211,0.8723 0.0225,0.4751 0.0258,1.2493 0.0258,2.66754 0,1.43094 -0.003,2.20646 -0.0269,2.69441 -0.0237,0.48795 -0.0679,0.68823 -0.15089,0.96945 -0.0977,0.33099 -0.246327,0.71606 -0.330237,0.85576 -0.11494,0.19136 -0.226,0.50845 -0.31575,0.87902 -0.0897,0.37056 -0.15792,0.79474 -0.18758,1.20044 -0.0254,0.34674 -0.0445,0.53836 -0.12247,0.75913 -0.078,0.22076 -0.21461,0.4708 -0.47543,0.93431 -0.29979,0.53278 -0.68752,1.25798 -0.86145,1.61179 -0.11883,0.24172 -0.23799,0.50085 -0.39274,0.76481 -0.15474,0.26395 -0.34535,0.5326 -0.60616,0.79271 -0.12486,0.41853 -0.2356,0.93168 -0.39222,1.32757 l 15.004277,0.0703 z M 32.540233,74.854119 c 0.0042,0.01295 -0.01997,0.06339 -0.07028,0.160197 -0.07375,0.14192 -0.117099,0.218174 -0.141593,0.239779 -0.02449,0.0216 -0.03049,-0.0115 -0.03049,-0.08837 0,-0.07191 0.0636,-0.183103 0.141077,-0.247013 0.06442,-0.05315 0.0971,-0.07755 0.101285,-0.0646 z"
         id="path3747" />
      <path
         id="path3733"
         d="m 98.067727,159.56313 c -0.21859,-0.0592 -0.9993,-0.0693 -1.41901,-0.20388 -0.30166,-0.0967 -0.77746,-0.38476 -0.53922,-0.889 l 0.22122,-0.4682 15.012463,0.0702 h 14.45715 l 0.06,0.4802 c 0.0686,0.54911 0.0141,0.67552 -0.39541,0.9168 -0.28366,0.16713 -1.51284,0.16955 -14.17273,0.18547 -10.15487,0.0128 -12.909803,-0.006 -13.224453,-0.0915 z m -2.95798,-2.65162 c 0.47103,-0.42444 1.3661,-1.44049 1.7895,-1.8232 0.24605,-0.4492 1.19569,-1.87881 1.40132,-2.0973 0.27333,-0.2904 0.46094,-0.86064 0.46094,-1.40108 0,-0.57216 0.27589,-1.73583 0.49597,-2.09192 0.093,-0.15045 0.24803,-0.55851 0.34454,-0.9068 0.16076,-0.5801 0.17549,-0.86161 0.17549,-3.35368 0,-2.64093 -0.006,-2.73924 -0.20419,-3.36378 -0.1123,-0.35384 -0.23071,-0.76872 -0.26313,-0.92194 -0.0641,-0.30293 -0.31442,-0.76767 -0.56488,-1.04872 -0.13851,-0.15542 -0.2103,-0.16922 -0.57814,-0.11107 -0.52167,0.0825 -1.8633,0.66442 -2.56303,1.11178 -0.2891,0.18482 -0.88758,0.72029 -1.32996,1.18993 -2.38914,2.53634 -2.6475,2.73489 -4.445,3.41593 -0.51224,0.19408 -1.59809,0.682 -2.413,1.08429 -1.61997,0.79969 -2.06755,0.95345 -5.207,1.78889 -1.16417,0.3098 -2.64286,0.71081 -3.28599,0.89114 -1.5626,0.43815 -4.65884,0.91495 -6.57768,1.01291 -1.94648,0.0994 -5.93759,0.098 -7.7512,-0.003 -1.48473,-0.0824 -1.49693,-0.0848 -4.1868,-0.80956 -0.66369,-0.17883 -1.10782,-0.23008 -2.54,-0.29314 -2.31391,-0.1019 -2.92356,-0.25962 -4.90183,-1.26821 -1.28513,-0.6552 -2.19751,-1.30468 -3.267853,-2.32625 -0.46531,-0.44411 -0.87174,-0.80746 -0.90319,-0.80746 -0.0314,0 -0.4765,-0.41647 -0.98903,-0.9255 -1.0555,-1.04826 -1.8569,-1.57352 -2.93443,-1.92325 -0.92464,-0.30011 -2.12971,-0.35995 -3.1719,-0.15752 -0.51552,0.10012 -1.01008,0.1366 -1.5211,0.11217 -0.68226,-0.0326 -0.82687,-0.0711 -1.4611,-0.38885 -0.81343,-0.40751 -1.3798,-0.8203 -2.36837,-1.72612 -1.19584,-1.09575 -1.40437,-1.22917 -2.96815,-1.89891 -0.91601,-0.39232 -1.53615,-0.81009 -2.23779,-1.50756 -0.33279,-0.3308 -0.90063,-0.84911 -1.26188,-1.1518 -0.36123,-0.30268 -0.7557,-0.67674 -0.87659,-0.83124 -0.12088,-0.15449 -0.52459,-0.49711 -0.89712,-0.76136 -0.37253,-0.26425 -0.94328,-0.74157 -1.26832,-1.0607 -0.32504,-0.31913 -0.69608,-0.65508 -0.82454,-0.74655 -0.34319,-0.2444 -1.67481,-1.5742 -1.67481,-1.67256 0,-0.11908 -1.33246,-1.60724 -2.20525,-2.46294 -0.40373,-0.39582 -0.85581,-0.9056 -1.00463,-1.13284 -0.36765,-0.5614 -0.92268,-2.06894 -1.03054,-2.79907 -0.0523,-0.35391 -0.20538,-0.83953 -0.3753,-1.19042 -0.86115,-1.77833 -1.18201,-2.73665 -1.40269,-4.18953 -0.0956,-0.62946 -0.2832,-1.65882 -0.41686,-2.28747 -0.13365,-0.62865 -0.28395,-1.44469 -0.334,-1.81342 -0.05,-0.36873 -0.18742,-1.06301 -0.30528,-1.54284 -0.20661,-0.84117 -0.28234,-1.63774 -0.42952,-4.51774 -0.0763,-1.49394 0.18692,-6.54368 0.43258,-8.297335 0.11415,-0.81491 0.24432,-1.83291 0.28927,-2.26222 0.0623,-0.59489 0.15361,-0.93979 0.38396,-1.44999 0.16625,-0.36819 0.30226,-0.71221 0.30226,-0.76449 0,-0.0523 0.15945,-0.44754 0.35433,-0.87834 0.34876,-0.771 0.35519,-0.80254 0.40985,-2.01095 0.0617,-1.36452 0.42875,-3.30321 0.68124,-3.59834 0.0797,-0.0931 0.26851,-0.41698 0.41962,-0.71966 0.43038,-0.862029 1.44185,-2.363908 2.02711,-3.009949 0.51629,-0.569912 0.8845,-0.903525 2.02808,-1.83751 0.29914,-0.244316 1.00399,-0.903451 1.56633,-1.464746 1.11952,-1.117434 1.58041,-1.78932 1.79349,-2.61454 0.0729,-0.282477 0.24361,-0.741627 0.37928,-1.020333 0.13567,-0.278705 0.24667,-0.564119 0.24667,-0.634249 0,-0.07013 0.1351,-0.413599 0.30023,-0.763259 0.29013,-0.614376 0.36706,-0.763977 0.83776,-1.629064 0.11989,-0.220353 0.31514,-0.464299 0.43388,-0.542099 0.26467,-0.173419 0.52141,-0.659156 0.59645,-1.128455 0.0309,-0.19309 0.14476,-0.472813 0.25308,-0.621604 0.10832,-0.148791 0.30907,-0.480079 0.44611,-0.736195 0.13703,-0.256117 0.37145,-0.579967 0.52093,-0.719667 0.40748,-0.380844 1.43407,-1.768081 1.90798,-2.578259 0.23022,-0.393573 0.61982,-0.933376 0.86578,-1.199562 0.5352,-0.579213 1.81131,-1.443504 2.83637,-1.921032 0.40896,-0.190515 0.94236,-0.515702 1.18533,-0.722638 0.90138,-0.767683 2.79162,-1.954792 3.7861,-2.377749 0.53552,-0.227759 1.58573,-0.7106 2.33381,-1.072984 0.74808,-0.362384 1.55489,-0.735639 1.7929,-0.829453 0.23801,-0.09382 0.97849,-0.444439 1.64552,-0.779166 0.66702,-0.334724 1.82237,-0.827611 2.56744,-1.095303 0.745063,-0.267695 1.773763,-0.639154 2.286003,-0.825466 1.17349,-0.426831 7.30431,-1.974046 8.98279,-2.26696 0.69403,-0.121116 1.64287,-0.320226 2.10854,-0.442468 0.81219,-0.213207 0.94665,-0.222825 3.302,-0.236199 2.39168,-0.01357 2.47289,-0.01963 3.13267,-0.233164 0.99836,-0.323128 1.64803,-0.458407 2.90789,-0.60551 0.81977,-0.09572 1.21483,-0.108339 1.43933,-0.04598 0.17019,0.04727 0.51264,0.08616 0.761,0.08642 0.64984,7.94e-4 2.98059,0.397711 3.82411,0.651417 0.80661,0.242607 1.49129,0.509744 2.24367,0.87539 1.78023,0.865177 3.32717,1.434833 4.48733,1.652453 0.18627,0.03494 1.50072,0.07323 2.921,0.08509 3.8572,0.03222 5.31277,0.312774 7.78933,1.501383 0.77801,0.373399 0.90574,0.449125 2.37067,1.405525 1.252003,0.817383 1.463093,0.991283 2.997193,2.46919 0.8913,0.858652 1.47407,1.345824 1.92435,1.608666 0.46307,0.270322 0.8506,0.597945 1.36931,1.15764 0.3979,0.429339 0.74739,0.856017 0.77663,0.948168 0.19198,0.260716 0.49561,0.414687 0.68572,0.643914 0.24599,0.300212 0.4374,0.423453 0.98659,0.635241 0.37475,0.144523 0.99049,0.319461 1.36829,0.38875 0.96542,0.177061 2.04482,0.52094 2.59192,0.825748 0.25612,0.14269 0.92287,0.561248 1.48167,0.930127 0.89987,0.594032 1.24582,0.903785 3.02683,2.710109 1.10596,1.121682 2.01084,2.072051 2.01084,2.111932 0,0.03988 0.41017,0.497962 0.91149,1.017953 1.21333,1.258514 2.22792,2.542301 2.89663,3.665164 0.30165,0.506518 0.93223,1.435294 1.40129,2.063944 1.33825,1.793579 1.45476,1.988971 3.00385,5.037667 0.80449,1.583262 1.75496,3.450162 2.11215,4.148662 0.63135,1.23463 1.96434,4.47358 2.40428,5.842 0.55434,1.72433 1.77426,6.120005 2.12998,7.674915 0.70495,3.08153 0.71767,3.16083 0.80557,5.02508 0.0992,2.10331 0.18081,2.71731 0.51506,3.87475 0.81835,2.83372 0.76745,5.84072 -0.14768,8.7239 -0.2903,0.91461 -0.29938,0.98233 -0.25786,1.92169 0.0556,1.25716 0.56626,4.00126 1.07617,5.1314 0.40574,1.35883 0.1158,4.92409 1.2791,8.54249 -0.0599,4.5117 -1.00364,5.20687 -2.168,7.67229 -0.42508,0.78167 -1.06495,1.82021 -1.26024,2.14617 -0.46098,0.76943 -0.86101,1.78711 -1.12811,2.93268 -0.44873,1.26872 -0.82161,1.67883 -0.92736,1.88838 -1.05445,0.79538 -1.72082,1.12764 -2.22286,1.95842 -0.63084,0.63176 -0.78935,1.12621 -2.60438,2.32142 -0.40119,0.61796 -1.13288,0.70394 -1.12833,0.83322 0.003,0.0787 0.44146,0.34968 0.59828,0.34968 0.0679,0 0.28522,0.2581 0.28522,0.35123 0,0.14905 -0.0954,-0.007 -0.51015,-0.007 -0.25918,0 -0.49504,0.0633 -0.58058,0.0176 -0.0855,-0.0458 -0.5454,0.0293 -0.92505,-0.0132 -0.8215,-0.0919 -0.88568,-0.31503 -1.28954,-1.13237 -0.24345,-0.49274 -0.2896,-0.7893 -0.2896,-1.21653 0,-0.45178 -0.0234,-0.53015 -0.17274,-0.57754 -0.095,-0.0302 -0.79034,-0.0451 -1.54516,-0.0333 -1.42928,0.0224 -1.69742,-0.0198 -2.6001,-0.40918 -0.20955,-0.0904 -0.51435,-0.19015 -0.67733,-0.22167 -0.35963,-0.0696 -1.28543,-0.54644 -2.03201,-1.04668 -0.30268,-0.2028 -0.97159,-0.77689 -1.48647,-1.27574 -1.41344,-1.36946 -2.56439,-2.38867 -2.69739,-2.38867 -0.21091,0 -0.9848,-0.67366 -2.7588,-2.4015 -1.06537,-1.03765 -1.84194,-1.86658 -2.01084,-2.14641 -0.15134,-0.25075 -0.27516,-0.47995 -0.27516,-0.50933 0,-0.0294 -0.21908,-0.33937 -0.48684,-0.68887 l -0.48683,-0.63546 -0.0496,-0.80972 c -0.0502,-0.82058 -0.11323,-1.00693 -0.53889,-1.5938 -0.11144,-0.15365 -0.22821,-0.4728 -0.26329,-0.71967 -0.0925,-0.65107 -0.0673,-2.26887 0.0396,-2.54459 0.0508,-0.13109 0.0925,-0.36193 0.0925,-0.51298 0,-0.15105 0.0511,-0.34457 0.11364,-0.43005 0.1085,-0.14838 0.11998,-0.14635 0.254,0.045 0.17342,0.24758 0.17774,0.6685 0.0124,1.21334 -0.25881,0.85317 -0.10633,2.32641 0.29437,2.84404 0.38016,0.4911 0.42621,0.63733 0.42621,1.35331 0,0.74987 0.10411,1.05062 0.51335,1.48303 0.13223,0.1397 0.42413,0.57785 0.64868,0.97366 0.35605,0.62761 0.61583,0.92003 2.03092,2.286 1.85286,1.78855 2.25461,2.14254 2.60825,2.29821 0.31244,0.13754 1.27753,0.98033 2.66538,2.32761 1.43689,1.39489 2.50422,2.10227 3.6831,2.44099 0.2794,0.0803 0.67945,0.22807 0.889,0.32841 0.35403,0.16954 0.5338,0.18431 2.54,0.20866 1.1955,0.0145 2.1949,0.0617 2.23943,0.10584 0.12153,0.12029 0.57547,0.0904 0.76125,-0.0501 0.0904,-0.0684 0.22124,-0.1243 0.29077,-0.1243 0.22552,0 1.57399,-0.66188 2.00022,-0.98177 0.1397,-0.10485 0.46688,-0.27016 0.72708,-0.36737 0.43165,-0.16126 0.49838,-0.22245 0.762,-0.69875 0.1861,-0.33626 0.66994,-0.91048 1.35971,-1.61375 l 1.07081,-1.09175 0.0602,-0.84132 c 0.0331,-0.46272 0.0904,-0.85999 0.12737,-0.88282 0.0369,-0.0228 0.0946,-0.278 0.12815,-0.56706 0.0649,-0.55945 0.18299,-0.77746 0.77757,-1.43593 0.19609,-0.21717 0.38152,-0.50292 0.41206,-0.635 0.0687,-0.2971 0.48899,-1.07143 0.79672,-1.46782 0.12653,-0.16298 0.25299,-0.44289 0.28102,-0.62201 0.03,-0.19187 0.19434,-0.51557 0.39991,-0.78785 0.39708,-0.52593 0.59039,-0.9394 0.59039,-1.26282 0,-0.12254 0.13958,-0.44895 0.31021,-0.72537 0.17061,-0.27642 0.33979,-0.68221 0.37595,-0.90176 0.21376,-2.47828 0.63904,-2.14717 -0.0238,-3.73318 -0.43596,-0.73827 -0.49029,-2.35547 -0.39348,-3.16954 0.0819,-0.6885 -0.3801,-1.69273 -0.34064,-1.71711 -0.31116,-1.72595 -0.10174,-2.76021 -0.4699,-4.14069 -0.18162,-0.67587 -0.32339,-0.9914 -0.70279,-1.56416 -0.48989,-0.53952 -0.49354,-1.00106 -0.53814,-1.69333 -0.0346,-0.53671 -0.12732,-1.18539 -0.2061,-1.44151 -0.0788,-0.25612 -0.14074,-0.50377 -0.13769,-0.55033 0.0603,-0.92238 0.10282,-1.87591 0.0999,-2.24367 -0.002,-0.25612 0.11268,-0.92287 0.25486,-1.48167 0.14217,-0.5588 0.29137,-1.2065 0.33152,-1.43933 0.19542,-1.13297 0.0199,-2.86126 -0.42627,-4.1985 -0.46697,-1.39946 -0.51821,-1.75569 -0.58353,-4.0565 -0.0598,-2.1063 -0.0687,-2.18793 -0.36611,-3.34433 -0.16764,-0.65194 -0.47959,-1.92829 -0.69321,-2.83634 -1.0886,-4.627405 -2.87437,-9.866845 -4.18431,-12.276655 -0.3164,-0.58209 -1.19639,-2.315636 -1.95552,-3.852336 -0.75912,-1.5367 -1.4844,-2.9464 -1.61171,-3.132667 -0.12731,-0.186266 -0.33084,-0.515289 -0.45229,-0.731163 -0.12144,-0.215871 -0.40952,-0.615921 -0.64016,-0.889 -1.02304,-1.211266 -1.20982,-1.464242 -1.52306,-2.062838 -0.18276,-0.34925 -0.5395,-0.943062 -0.79275,-1.319583 -0.25327,-0.37652 -0.56879,-0.960638 -0.70116,-1.298037 -0.15232,-0.388242 -0.32875,-0.680869 -0.48056,-0.797084 -0.66689,-0.510527 -2.29377,-2.005668 -2.52601,-2.321461 -0.14555,-0.197909 -0.29865,-0.359834 -0.34025,-0.359834 -0.0416,0 -0.14868,-0.142875 -0.23798,-0.3175 -0.0893,-0.174625 -0.40439,-0.548901 -0.70022,-0.831725 -0.49045,-0.468903 -0.80431,-0.683795 -2.26056,-1.547728 -0.49099,-0.291282 -1.41486,-0.628999 -2.1549,-0.78771 -0.22956,-0.04923 -1.04438,-0.311303 -1.81071,-0.582379 -1.6332,-0.577721 -2.34363,-0.99413 -2.73404,-1.602537 -0.33241,-0.517865 -1.62434,-1.763156 -2.49958,-2.409141 -0.37253,-0.274955 -1.02103,-0.827091 -1.44113,-1.226964 -1.03444,-0.984676 -1.901403,-1.734677 -2.157203,-1.866199 -0.11642,-0.05986 -0.32597,-0.214804 -0.46567,-0.344328 -0.1397,-0.129524 -0.64652,-0.468506 -1.12626,-0.753293 -2.88132,-1.710412 -4.49429,-2.108668 -8.58314,-2.119246 l -1.633,-0.07046 -2.38867,-0.516925 c -2.06095,-0.510137 -2.49703,-0.64808 -3.48636,-1.102843 -2.81438,-1.320725 -2.96554,-0.960295 -4.70586,-1.362292 -0.13244,-0.201718 -0.91635,-0.187741 -1.93988,-0.230188 -1.32312,-0.05487 -2.26107,0.05476 -3.413,0.39891 -1.35145,0.403757 -2.20061,0.49295 -4.26216,0.447683 l -1.82033,-0.03997 -1.56634,0.341116 c -0.86148,0.187614 -2.15688,0.45746 -2.87866,0.599657 -2.02524,0.398987 -5.49818,1.313387 -7.747,2.039729 -2.025,0.65405 -2.952263,1.019032 -4.614333,1.816269 -1.70037,0.815602 -3.88605,1.825376 -5.5804,2.578119 -0.53133,0.236053 -1.02663,0.482443 -1.10067,0.547528 -0.074,0.06509 -0.36528,0.233707 -0.64721,0.374712 -0.28194,0.141001 -0.68048,0.396613 -0.88564,0.56802 -0.20516,0.171411 -0.54599,0.428853 -0.75739,0.572098 -0.2114,0.143246 -0.51573,0.373624 -0.67629,0.511956 -0.16057,0.138329 -0.57967,0.387228 -0.93134,0.553106 -0.86119,0.406215 -2.16625,1.265521 -2.60935,1.718109 -0.1987,0.202962 -0.56065,0.678873 -0.80433,1.057582 -0.84931,1.319945 -1.35622,2.023914 -1.79042,2.48644 -0.57546,0.613003 -0.69978,0.798965 -1.2881,1.926879 -0.27346,0.524265 -0.59245,1.13536 -0.70886,1.357988 -0.11642,0.222626 -0.2924,0.517581 -0.39106,0.655453 -0.0987,0.137874 -0.20752,0.345929 -0.2419,0.462346 -0.0344,0.116416 -0.1687,0.383116 -0.2985,0.592666 -0.12979,0.20955 -0.30052,0.607973 -0.3794,0.885384 -0.0789,0.277413 -0.23042,0.677463 -0.33677,0.889 -0.10635,0.211539 -0.25842,0.613216 -0.33793,0.892616 -0.14585,0.512535 -0.6519,1.51192 -0.81737,1.614182 -0.0492,0.03041 -0.15927,0.170079 -0.24459,0.310369 -0.26489,0.435584 -1.30791,1.453118 -2.56762,2.504882 -2.09268,1.71137 -1.95508,2.085658 -2.96034,3.318706 -0.24628,0.08586 -0.73133,0.993016 -1.14695,1.819196 -0.40151,0.79814 -0.61511,1.78692 -0.69501,3.21733 -0.0754,1.34961 -0.23718,2.19204 -0.50392,2.62362 -0.0899,0.14548 -0.33745,0.69742 -0.5501,1.22655 -0.31382,0.78084 -0.4028,1.12283 -0.47237,1.81561 -0.0471,0.46945 -0.14392,1.29171 -0.21504,1.82722 -0.2983,2.246265 -0.3821,3.397285 -0.42841,5.884325 -0.0612,3.28528 0.0563,5.53815 0.34742,6.66087 0.11263,0.43439 0.2659,1.20267 0.3406,1.70729 0.0747,0.50462 0.22761,1.38092 0.33979,1.94733 0.11219,0.56642 0.26862,1.468 0.34763,2.00351 0.079,0.53552 0.20943,1.14512 0.28983,1.35467 0.0804,0.20955 0.17177,0.5334 0.20308,0.71967 0.0313,0.18626 0.18452,0.60536 0.34049,0.93133 0.15596,0.32597 0.42025,0.87842 0.5873,1.22767 0.16705,0.34925 0.34249,0.88265 0.38987,1.18533 0.10979,0.7014 0.59706,2.06451 0.92788,2.59568 0.14044,0.22549 0.7756,0.92434 1.41146,1.55299 0.63586,0.62865 1.28059,1.33467 1.43274,1.56893 0.34694,0.53418 1.35136,1.55868 2.07263,2.11407 0.30238,0.23283 0.90494,0.71861 1.33903,1.0795 0.43409,0.36089 0.8227,0.65616 0.86359,0.65616 0.55587,-0.0636 0.59932,0.33057 0.80126,0.55429 0.15405,0.1175 0.37613,0.35875 0.4935,0.53611 0.11737,0.17736 0.34273,0.38384 0.5008,0.45885 0.15807,0.075 0.43077,0.25032 0.606,0.38958 0.17523,0.13925 0.45309,0.29758 0.61746,0.35182 0.69306,0.22873 1.72053,0.76692 1.98611,1.04033 0.69613,0.71663 2.10028,1.96818 2.48714,2.21683 0.88685,0.57003 1.75433,0.9824 2.07594,0.98684 0.17562,0.002 0.58047,-0.083 0.89968,-0.1898 0.9899,-0.0755 1.15193,-0.4496 1.78849,-0.4417 0.49915,0.0822 1.60814,0.24895 1.92395,0.43528 0.14247,0.0841 0.44861,0.17529 0.68031,0.20273 0.78789,0.0933 1.54521,0.64931 3.38809,2.48744 1.50053,1.49666 2.1891,2.03205 2.71483,2.11089 0.27773,0.0417 0.416023,0.12095 0.575493,0.33004 1.01723,0.80795 2.25838,1.51695 3.52155,1.78622 0.56417,0.11415 0.95341,0.13444 1.80141,0.0939 1.1711,-0.056 2.24719,0.0416 2.8019,0.25408 0.19233,0.0737 0.78784,0.2848 1.32336,0.46917 l 0.97366,0.33522 2.032,0.0833 c 3.9169,0.16049 6.92582,0.0768 9.906,-0.2754 2.01346,-0.23798 2.85169,-0.39046 3.50176,-0.63698 0.30923,-0.11727 1.03849,-0.32714 1.62058,-0.4664 0.58208,-0.13924 1.43933,-0.36097 1.905,-0.49273 0.46566,-0.13176 1.30386,-0.34511 1.86266,-0.47411 0.5588,-0.129 1.16119,-0.30667 1.33864,-0.39483 0.17745,-0.0882 0.56272,-0.23446 0.85615,-0.32509 0.29344,-0.0906 0.6245,-0.236 0.7357,-0.32304 0.1112,-0.087 0.43686,-0.27643 0.72368,-0.42088 0.28682,-0.14445 0.65714,-0.35469 0.82292,-0.46719 0.16578,-0.11251 0.56021,-0.26299 0.87652,-0.33443 0.3163,-0.0714 0.99047,-0.32875 1.49816,-0.57184 0.92025,-0.44061 1.33835,-0.7705 2.06429,-1.62877 0.23762,-0.28092 0.68829,-0.50732 3.58808,-1.80245 1.82399,-0.81463 3.35718,-1.46478 3.4071,-1.44477 0.0499,0.02 0.54239,0.82244 1.09438,1.78319 0.76153,1.32544 0.981423,1.77354 0.91159,1.85769 -0.0676,0.0814 -0.0474,0.23795 0.0759,0.58864 0.15554,0.44254 0.16791,0.70341 0.16791,3.5399 0,2.86188 -0.0116,3.10152 -0.17758,3.66395 -0.0977,0.33099 -0.246277,0.7161 -0.330187,0.8558 -0.22987,0.38272 -0.44426,1.26793 -0.50357,2.07932 -0.0507,0.69349 -0.0764,0.76631 -0.59805,1.69333 -0.29978,0.53278 -0.68737,1.25816 -0.86129,1.61196 -0.23766,0.48345 -0.47699,1.03743 -0.99862,1.55766 -0.25312,0.84844 -0.44351,2.09339 -1.09005,1.93863 -0.64655,-0.15476 -0.74519,-0.86503 -0.53177,-1.70194 z M 32.298174,75.165697 c 0,-0.07191 0.0634,-0.183033 0.14086,-0.246943 0.12885,-0.106292 0.13148,-0.09815 0.0309,0.09547 -0.1475,0.283839 -0.17172,0.305207 -0.17172,0.151476 z"
         style="fill:#000000;stroke-width:0.08466666" />
    </g>
    <flowRoot
       style="font-style:normal;font-weight:normal;font-size:40px;line-height:1.25;font-family:sans-serif;letter-spacing:0px;word-spacing:0px;fill:#000000;fill-opacity:1;stroke:none"
       id="flowRoot303"
       xml:space="preserve"><flowRegion
         id="flowRegion305"><rect
           y="251.46793"
           x="340"
           height="42"
           width="26"
           id="rect307" /></flowRegion><flowPara
         id="flowPara309" /></flowRoot>    <text
       xml:space="preserve"
       style="font-style:normal;font-weight:normal;font-size:98.73941803px;line-height:1.25;font-family:sans-serif;letter-spacing:0px;word-spacing:0px;opacity:1;fill:#d20012;fill-opacity:1;stroke:#000000;stroke-width:32.09030914;stroke-linecap:round;stroke-linejoin:round;stroke-miterlimit:4;stroke-dasharray:none;stroke-opacity:1;paint-order:stroke fill markers"
       x="46.835625"
       y="290.61752"
       id="text1592"><tspan
         x="46.835625"
         y="290.61752"
         id="tspan1590"
         style="font-style:italic;font-variant:normal;font-weight:bold;font-stretch:normal;font-size:230.39198303px;line-height:1;font-family:Inconsolata;-inkscape-font-specification:'Inconsolata Bold';fill:#d20012;fill-opacity:1;stroke:#000000;stroke-width:32.09030914;stroke-linecap:round;stroke-linejoin:round;stroke-miterlimit:4;stroke-dasharray:none;stroke-opacity:1;paint-order:stroke fill markers">NR!</tspan></text>
  </a>
</svg>
