<svg xmlns="http://www.w3.org/2000/svg" viewBox="0 0 42 42"><path d="M14.7 4c-.4-.6-1-1-1.8-1H2.3C1.1 3 .2 3.9.2 5.1c0 .4.1.8.3 1.1l2.7 4 14.2-2.1L14.7 4z" fill="#06f"/><path d="M17.4 8c-.4-.6-1-1-1.8-1H5.1c-.9 0-1.8.5-2.1 1.3-.2.7-.1 1.4.2 1.9L6.3 15l14.2-2.2L17.4 8z" fill="#51b9ff"/><path d="M5.8 14.2c-.3-.5-.4-1.2-.2-1.9.3-.8 1.1-1.3 2-1.3h10.6c.7 0 1.4.4 1.8 1l9.5 15.1c.2.3.3.7.3 1.1s-.1.8-.3 1.1l-5.3 8.4c-.4.6-1 1-1.8 1-.7 0-1.4-.4-1.8-1L5.8 14.2zM32.6 19c.4.6 1 1 1.8 1 .7 0 1.4-.4 1.8-1l1.8-2.9 3.5-5.5c.2-.3.3-.7.3-1.1 0-.4-.1-.8-.3-1.1L38.6 4c-.4-.6-1-1-1.8-1H26.3c-1.1 0-2.1.9-2.1 2.1 0 .4.1.8.3 1.1L32.6 19z" fill="#fff"/></svg>