<?xml version="1.0" encoding="UTF-8" standalone="no"?>
<svg
   xmlns:dc="http://purl.org/dc/elements/1.1/"
   xmlns:cc="http://creativecommons.org/ns#"
   xmlns:rdf="http://www.w3.org/1999/02/22-rdf-syntax-ns#"
   xmlns:svg="http://www.w3.org/2000/svg"
   xmlns="http://www.w3.org/2000/svg"
   viewBox="0 0 299.50446 299.67007"
   height="299.67007"
   width="299.50446"
   id="svg2"
   version="1.1">
  <metadata
     id="metadata8">
    <rdf:RDF>
      <cc:Work
         rdf:about="">
        <dc:format>image/svg+xml</dc:format>
        <dc:type
           rdf:resource="http://purl.org/dc/dcmitype/StillImage" />
        <dc:title></dc:title>
      </cc:Work>
    </rdf:RDF>
  </metadata>
  <defs
     id="defs6" />
  <path
     id="path3715"
     d="m 57.000426,298.48853 c -15.10671,-3.12846 -25.54123,-8.82729 -36.66484,-20.02456 -6.70103,-6.74539 -8.9761,-9.90045 -12.6897705,-17.59812 C -0.19263449,244.61839 4.2551071e-4,247.41839 4.2551071e-4,149.98664 4.2551071e-4,75.29134 0.21029551,62.88257 1.5867455,56.194482 7.1404455,29.20936 27.301506,8.4390926 54.201076,1.9903023 62.159046,0.08249387 66.099646,6.5166793e-4 150.00043,6.5166793e-4 c 99.2401,0 96.02667,-0.23489009793 112.37613,8.21428303207 11.77679,6.0860873 23.79356,18.2350443 29.44775,29.7717053 8.10848,16.544326 7.67612,10.235854 7.67612,112 0,83.78901 -0.13238,90.97966 -1.78525,96.96835 -6.81699,24.69949 -25.18673,43.23304 -50.21475,50.66253 -5.53196,1.64215 -12.94259,1.79809 -95,1.99909 -71.369914,0.17482 -90.287594,-0.0486 -95.500004,-1.12808 z M 167.06617,263.95146 c 1.77549,-0.95022 1.93426,-2.22252 1.93426,-15.5 v -14.46482 h 21.06574 c 20.58409,0 24.21375,-0.47154 26.16894,-3.3997 0.40408,-0.60517 0.74158,-7.42679 0.75,-15.15917 0.0115,-10.5786 -0.33586,-14.5394 -1.40327,-16 -1.3496,-1.84674 -3.26827,-1.96544 -39.45727,-2.44113 l -38.0387,-0.5 16.76978,-21.5 c 9.22338,-11.825 26.97416,-34.55 39.44619,-50.5 l 22.6764,-29 0.0111,-12.75 c 0.0156,-17.895937 1.79357,-16.75 -25.98891,-16.75 h -22 v -14.3 c 0,-9.788889 -0.37855,-14.678555 -1.2,-15.5 -1.67991,-1.679907 -31.92009,-1.679907 -33.6,0 -0.82145,0.821445 -1.2,5.711111 -1.2,15.5 v 14.3 h -21.5 c -27.425194,0 -25.500004,-1.391318 -25.500004,18.428571 0,11.78355 0.28807,14.716644 1.57143,15.999999 0.86429,0.86429 1.65179,1.66967 1.75,1.78973 0.0982,0.12007 16.254014,0.45757 35.901774,0.75 l 35.7232,0.5317 -39.2232,49.99632 -39.223204,49.99632 v 13.34203 c 0,18.34413 -1.89612,17.16533 27.610784,17.16533 h 22.88922 v 14.45031 c 0,12.70724 0.21109,14.57326 1.75,15.46959 2.30825,1.34444 29.81613,1.38267 32.31574,0.0449 z"
     style="fill:#6c1cd3" />
</svg>
